<svg xmlns="http://www.w3.org/2000/svg" xmlns:xlink="http://www.w3.org/1999/xlink" width="850" height="849" viewBox="0 0 850 849">
  
    <defs>
      <style type="text/css">
        <![CDATA[
          @import url('https://fonts.googleapis.com/css2?family=Inter:wght@400;500;600;700&display=swap');
          
          .card-text {
            font-family: 'Inter', 'Segoe UI', -apple-system, BlinkMacSystemFont, system-ui, sans-serif;
          }
          
          @keyframes fadeIn {
            from { opacity: 0; transform: translateY(-5px); }
            to { opacity: 1; transform: translateY(0); }
          }
          @keyframes slideIn {
            from { opacity: 0; transform: translateX(-10px); }
            to { opacity: 1; transform: translateX(0); }
          }
          @keyframes pulse {
        0%, 100% { opacity: 1; }
        50% { opacity: 0.7; }
      }
      @keyframes glow {
        0%, 100% { filter: drop-shadow(0 0 2px #0550ae40); }
        50% { filter: drop-shadow(0 0 8px #0550ae60); }
      }
      @keyframes rankPulse {
        0%, 100% { transform: scale(1); }
        50% { transform: scale(1.02); }
      }
      .animate-fade { animation: fadeIn 0.5s ease-out forwards; }
      .animate-slide { animation: slideIn 0.6s ease-out forwards; }
      .animate-pulse { animation: pulse 2s ease-in-out infinite; }
      .animate-glow { animation: glow 3s ease-in-out infinite; }
      .animate-rank { animation: rankPulse 2s ease-in-out infinite; }
      .stat-item { animation: fadeIn 0.5s ease-out forwards; }
      .lang-bar { animation: slideIn 0.8s ease-out forwards; }
        ]]>
      </style>
    </defs>
  
  
    <defs>
      <linearGradient id="bgGradient" x1="0%" y1="0%" x2="100%" y2="100%">
        <stop offset="0%" style="stop-color:#f6f8fa;stop-opacity:1" />
        <stop offset="50%" style="stop-color:#ffffff;stop-opacity:1" />
        <stop offset="100%" style="stop-color:#f6f8fa;stop-opacity:1" />
      </linearGradient>
      <linearGradient id="accentGradient" x1="0%" y1="0%" x2="100%" y2="0%">
        <stop offset="0%" style="stop-color:#0550ae;stop-opacity:1" />
        <stop offset="100%" style="stop-color:#1a7f37;stop-opacity:1" />
      </linearGradient>
      <linearGradient id="rankGradient" x1="0%" y1="0%" x2="100%" y2="100%">
        <stop offset="0%" style="stop-color:#0550ae;stop-opacity:0.2" />
        <stop offset="100%" style="stop-color:#1a7f37;stop-opacity:0.2" />
      </linearGradient>
      <filter id="glow">
        <feGaussianBlur stdDeviation="2" result="coloredBlur"/>
        <feMerge>
          <feMergeNode in="coloredBlur"/>
          <feMergeNode in="SourceGraphic"/>
        </feMerge>
      </filter>
      <clipPath id="avatarClip">
        <circle cx="50" cy="50" r="45" />
      </clipPath>
    </defs>
  
  
  <!-- Gradient Border Definition -->
  <defs>
    <linearGradient id="borderGradient" x1="0%" y1="0%" x2="100%" y2="100%">
      <stop offset="0%" style="stop-color:#0550ae" />
      <stop offset="50%" style="stop-color:#1a7f37" />
      <stop offset="100%" style="stop-color:#0550ae" />
    </linearGradient>
  </defs>
  
  <!-- Main Background with gradient border -->
  <rect x="0" y="0" width="850" height="849" rx="16" fill="#f6f8fa"/>
  <rect x="1" y="1" width="848" height="847" rx="15" fill="none" stroke="url(#borderGradient)" stroke-width="2"/>
  
  
    <!-- Header Section -->
    <g transform="translate(0, 36)">
      
      <g transform="translate(425, 0)">
        <text x="0" y="0" text-anchor="middle" font-size="28" font-weight="700" fill="#0550ae" font-family="'Inter', 'Segoe UI', -apple-system, BlinkMacSystemFont, system-ui, sans-serif" letter-spacing="0.5">
          shu-vro
        </text>
        <text x="0" y="32" text-anchor="middle" font-size="15" font-weight="400" fill="#57606a" font-family="'Inter', 'Segoe UI', -apple-system, BlinkMacSystemFont, system-ui, sans-serif" letter-spacing="0.3">
          Shirshen Shuvro
        </text>
      </g>
  
      
      <!-- Profile Stats - Left aligned -->
      <g transform="translate(48, 82)">
        
        <g transform="translate(0, 0)">
          
    <g transform="translate(0, -1) scale(1.125)">
      <path fill="#ff6b35" d="M7.998 14.5c2.832 0 5-1.98 5-4.5 0-1.463-.68-2.19-1.879-3.383l-.036-.037c-1.013-1.008-2.3-2.29-2.834-4.434-.322.256-.63.579-.864.953-.432.696-.621 1.58-.046 2.73.473.947.67 2.284-.278 3.232-.61.61-1.545.84-2.403.633a2.79 2.79 0 01-1.436-.874A3.198 3.198 0 003 10c0 2.53 2.164 4.5 4.998 4.5zM9.533.753C9.496.34 9.16.009 8.77.146 7.035.75 4.34 3.187 5.997 6.5c.344.689.285 1.218.003 1.5-.419.419-1.54.487-2.04-.832-.173-.454-.659-.762-1.035-.454C2.036 7.44 1.5 8.702 1.5 10c0 3.512 2.998 6 6.498 6s6.5-2.5 6.5-6c0-2.137-1.128-3.26-2.312-4.438-1.19-1.184-2.436-2.425-2.653-4.81z" />
    </g>
  
          <text x="28" y="13" font-size="14" fill="#24292f" font-family="'Inter', 'Segoe UI', -apple-system, BlinkMacSystemFont, system-ui, sans-serif" letter-spacing="0.3">
            1,219 contributions in the last 12 months
          </text>
        </g>
        
        <g transform="translate(0, 32)">
          
    <g transform="translate(0, -1) scale(1.125)">
      <path fill="#0550ae" d="M2 2.5A2.5 2.5 0 0 1 4.5 0h8.75a.75.75 0 0 1 .75.75v12.5a.75.75 0 0 1-.75.75h-2.5a.75.75 0 0 1 0-1.5h1.75v-2h-8a1 1 0 0 0-.714 1.7.75.75 0 1 1-1.072 1.05A2.495 2.495 0 0 1 2 11.5Zm10.5-1h-8a1 1 0 0 0-1 1v6.708A2.486 2.486 0 0 1 4.5 9h8ZM5 12.25a.25.25 0 0 1 .25-.25h3.5a.25.25 0 0 1 .25.25v3.25a.25.25 0 0 1-.4.2l-1.45-1.087a.249.249 0 0 0-.3 0L5.4 15.7a.25.25 0 0 1-.4-.2Z" />
    </g>
  
          <text x="28" y="13" font-size="14" fill="#24292f" font-family="'Inter', 'Segoe UI', -apple-system, BlinkMacSystemFont, system-ui, sans-serif" letter-spacing="0.3">
            100 public repositories
          </text>
        </g>
        
        <g transform="translate(0, 64)">
          
    <g transform="translate(0, -1) scale(1.125)">
      <path fill="#9ca3af" d="M4.75 0a.75.75 0 0 1 .75.75V2h5V.75a.75.75 0 0 1 1.5 0V2h1.25c.966 0 1.75.784 1.75 1.75v10.5A1.75 1.75 0 0 1 13.25 16H2.75A1.75 1.75 0 0 1 1 14.25V3.75C1 2.784 1.784 2 2.75 2H4V.75A.75.75 0 0 1 4.75 0ZM2.5 7.5v6.75c0 .138.112.25.25.25h10.5a.25.25 0 0 0 .25-.25V7.5Zm10.5-4H2.75a.25.25 0 0 0-.25.25V6h11V3.75a.25.25 0 0 0-.25-.25Z" />
    </g>
  
          <text x="28" y="13" font-size="14" fill="#24292f" font-family="'Inter', 'Segoe UI', -apple-system, BlinkMacSystemFont, system-ui, sans-serif" letter-spacing="0.3">
            Joined GitHub 5 years ago
          </text>
        </g>
        
        <g transform="translate(0, 96)">
          
    <g transform="translate(0, -1) scale(1.125)">
      <path fill="#10b981" d="M4.146.146A.5.5 0 0 1 4.5 0h7a.5.5 0 0 1 .5.5c0 .68-.342 1.174-.646 1.479-.126.125-.25.224-.354.298v4.431l.078.048c.203.127.476.314.751.555C12.36 7.775 13 8.527 13 9.5a.5.5 0 0 1-.5.5h-4v4.5c0 .276-.224 1.5-.5 1.5s-.5-1.224-.5-1.5V10h-4a.5.5 0 0 1-.5-.5c0-.973.64-1.725 1.17-2.189A6 6 0 0 1 5 6.708V2.277a3 3 0 0 1-.354-.298C4.342 1.674 4 1.179 4 .5a.5.5 0 0 1 .146-.354" />
    </g>
  
          <text x="28" y="13" font-size="14" fill="#24292f" font-family="'Inter', 'Segoe UI', -apple-system, BlinkMacSystemFont, system-ui, sans-serif" letter-spacing="0.3">
            Rajshahi, Bangladesh.
          </text>
        </g>
        
      </g>
  
      
      <!-- Contribution Area Graph -->
      <g transform="translate(490, 82)">
        <text x="140" y="-8" text-anchor="middle" font-size="12" font-weight="600" fill="#57606a" font-family="'Inter', 'Segoe UI', -apple-system, BlinkMacSystemFont, system-ui, sans-serif" letter-spacing="0.3">
          Monthly Contributions (Last 12 Months)
        </text>
        
        <!-- Y-axis labels -->
        <g transform="translate(290, 0)">
          <text y="10" font-size="9" fill="#57606a" font-family="'Inter', 'Segoe UI', -apple-system, BlinkMacSystemFont, system-ui, sans-serif">157</text>
          <text y="49" font-size="9" fill="#57606a" font-family="'Inter', 'Segoe UI', -apple-system, BlinkMacSystemFont, system-ui, sans-serif">79</text>
          <text y="90" font-size="9" fill="#57606a" font-family="'Inter', 'Segoe UI', -apple-system, BlinkMacSystemFont, system-ui, sans-serif">0</text>
        </g>
        
        <defs>
          <linearGradient id="headerAreaGradient" x1="0%" y1="0%" x2="0%" y2="100%">
            <stop offset="0%" style="stop-color:#0550ae;stop-opacity:0.5" />
            <stop offset="100%" style="stop-color:#0550ae;stop-opacity:0.05" />
          </linearGradient>
        </defs>
        
        <path d="M 0 90 L 0 37.92993630573249 L 25.454545454545457 15 L 50.909090909090914 23.59872611464968 L 76.36363636363636 55.12738853503185 L 101.81818181818183 74.71337579617834 L 127.27272727272727 40.796178343949045 L 152.72727272727272 24.554140127388536 L 178.1818181818182 55.12738853503185 L 203.63636363636365 40.31847133757962 L 229.0909090909091 50.35031847133758 L 254.54545454545453 32.67515923566879 L 280 60.859872611464965 L 280 90 Z" fill="url(#headerAreaGradient)" />
        <path d="M 0 37.92993630573249 L 25.454545454545457 15 L 50.909090909090914 23.59872611464968 L 76.36363636363636 55.12738853503185 L 101.81818181818183 74.71337579617834 L 127.27272727272727 40.796178343949045 L 152.72727272727272 24.554140127388536 L 178.1818181818182 55.12738853503185 L 203.63636363636365 40.31847133757962 L 229.0909090909091 50.35031847133758 L 254.54545454545453 32.67515923566879 L 280 60.859872611464965" fill="none" stroke="#0550ae" stroke-width="2.5" stroke-linecap="round" stroke-linejoin="round"/>
        
        <!-- X-axis labels -->
        <g transform="translate(0, 104)">
          <text x="0" y="0" font-size="9" fill="#57606a" font-family="'Inter', 'Segoe UI', -apple-system, BlinkMacSystemFont, system-ui, sans-serif" text-anchor="middle">Jul '25</text><text x="101.81818181818183" y="0" font-size="9" fill="#57606a" font-family="'Inter', 'Segoe UI', -apple-system, BlinkMacSystemFont, system-ui, sans-serif" text-anchor="middle">Nov '25</text><text x="203.63636363636365" y="0" font-size="9" fill="#57606a" font-family="'Inter', 'Segoe UI', -apple-system, BlinkMacSystemFont, system-ui, sans-serif" text-anchor="middle">Mar '26</text><text x="280" y="0" font-size="9" fill="#57606a" font-family="'Inter', 'Segoe UI', -apple-system, BlinkMacSystemFont, system-ui, sans-serif" text-anchor="middle">Jun '26</text>
        </g>
      </g>
  
    </g>
  
  <g transform="translate(40, 259)">
      <rect x="0" y="0" width="377" height="200" rx="14" fill="#ffffff" stroke="#d0d7de" stroke-width="1"/>
      <g transform="translate(24, 28)">
    <g transform="translate(0, -1) scale(1.125)">
      <path fill="#0550ae" d="M6 2a.75.75 0 0 1 .696.471L10 10.731l1.304-3.26A.751.751 0 0 1 12 7h3.25a.75.75 0 0 1 0 1.5h-2.742l-1.812 4.528a.751.751 0 0 1-1.392 0L6 4.770 4.696 8.029A.75.75 0 0 1 4 8.5H.75a.75.75 0 0 1 0-1.5h2.742l1.812-4.529A.751.751 0 0 1 6 2Z" />
    </g>
  <text x="28" y="13" font-size="16" font-weight="600" fill="#0550ae" font-family="'Inter', 'Segoe UI', -apple-system, BlinkMacSystemFont, system-ui, sans-serif" letter-spacing="0.3">GitHub Stats</text></g>
      <g transform="translate(24, 60)"><g transform="translate(0, 0)">
    <g transform="translate(0, 0) scale(1)">
      <path fill="#fbbf24" d="M8 .25a.75.75 0 01.673.418l1.882 3.815 4.21.612a.75.75 0 01.416 1.279l-3.046 2.97.719 4.192a.75.75 0 01-1.088.791L8 12.347l-3.766 1.98a.75.75 0 01-1.088-.79l.72-4.194L.818 6.374a.75.75 0 01.416-1.28l4.21-.611L7.327.668A.75.75 0 018 .25z" />
    </g>
  <text x="26" y="12" font-size="13" fill="#57606a" font-family="'Inter', 'Segoe UI', -apple-system, BlinkMacSystemFont, system-ui, sans-serif" letter-spacing="0.3">Total Stars Earned</text><text x="230" y="12" font-size="14" font-weight="600" fill="#24292f" font-family="'Inter', 'Segoe UI', -apple-system, BlinkMacSystemFont, system-ui, sans-serif" text-anchor="end" letter-spacing="0.2">266</text></g><g transform="translate(0, 27)">
    <g transform="translate(0, 0) scale(1)">
      <path fill="#34d399" d="M11.93 8.5a4.002 4.002 0 0 1-7.86 0H.75a.75.75 0 0 1 0-1.5h3.32a4.002 4.002 0 0 1 7.86 0h3.32a.75.75 0 0 1 0 1.5Zm-1.43-.75a2.5 2.5 0 1 0-5 0 2.5 2.5 0 0 0 5 0Z" />
    </g>
  <text x="26" y="12" font-size="13" fill="#57606a" font-family="'Inter', 'Segoe UI', -apple-system, BlinkMacSystemFont, system-ui, sans-serif" letter-spacing="0.3">Contributions (12mo)</text><text x="230" y="12" font-size="14" font-weight="600" fill="#24292f" font-family="'Inter', 'Segoe UI', -apple-system, BlinkMacSystemFont, system-ui, sans-serif" text-anchor="end" letter-spacing="0.2">1,219</text></g><g transform="translate(0, 54)">
    <g transform="translate(0, 0) scale(1)">
      <path fill="#a78bfa" d="M1.5 3.25a2.25 2.25 0 1 1 3 2.122v5.256a2.251 2.251 0 1 1-1.5 0V5.372A2.25 2.25 0 0 1 1.5 3.25Zm5.677-.177L9.573.677A.25.25 0 0 1 10 .854V2.5h1A2.5 2.5 0 0 1 13.5 5v5.628a2.251 2.251 0 1 1-1.5 0V5a1 1 0 0 0-1-1h-1v1.646a.25.25 0 0 1-.427.177L7.177 3.427a.25.25 0 0 1 0-.354ZM3.75 2.5a.75.75 0 1 0 0 1.5.75.75 0 0 0 0-1.5Zm0 9.5a.75.75 0 1 0 0 1.5.75.75 0 0 0 0-1.5Zm8.25.75a.75.75 0 1 0 1.5 0 .75.75 0 0 0-1.5 0Z" />
    </g>
  <text x="26" y="12" font-size="13" fill="#57606a" font-family="'Inter', 'Segoe UI', -apple-system, BlinkMacSystemFont, system-ui, sans-serif" letter-spacing="0.3">Pull Requests (12mo)</text><text x="230" y="12" font-size="14" font-weight="600" fill="#24292f" font-family="'Inter', 'Segoe UI', -apple-system, BlinkMacSystemFont, system-ui, sans-serif" text-anchor="end" letter-spacing="0.2">1</text></g><g transform="translate(0, 81)">
    <g transform="translate(0, 0) scale(1)">
      <path fill="#f472b6" d="M8 9.5a1.5 1.5 0 1 0 0-3 1.5 1.5 0 0 0 0 3Z M8 0a8 8 0 1 1 0 16A8 8 0 0 1 8 0ZM1.5 8a6.5 6.5 0 1 0 13 0 6.5 6.5 0 0 0-13 0Z" />
    </g>
  <text x="26" y="12" font-size="13" fill="#57606a" font-family="'Inter', 'Segoe UI', -apple-system, BlinkMacSystemFont, system-ui, sans-serif" letter-spacing="0.3">Issues (12mo)</text><text x="230" y="12" font-size="14" font-weight="600" fill="#24292f" font-family="'Inter', 'Segoe UI', -apple-system, BlinkMacSystemFont, system-ui, sans-serif" text-anchor="end" letter-spacing="0.2">18</text></g><g transform="translate(0, 108)">
    <g transform="translate(0, 0) scale(1)">
      <path fill="#60a5fa" d="M5 3.25a.75.75 0 11-1.5 0 .75.75 0 011.5 0zm0 2.122a2.25 2.25 0 10-1.5 0v.878A2.25 2.25 0 005.75 8.5h1.5v2.128a2.251 2.251 0 101.5 0V8.5h1.5a2.25 2.25 0 002.25-2.25v-.878a2.25 2.25 0 10-1.5 0v.878a.75.75 0 01-.75.75h-4.5A.75.75 0 015 6.25v-.878zm3.75 7.378a.75.75 0 11-1.5 0 .75.75 0 011.5 0zm3-8.75a.75.75 0 100-1.5.75.75 0 000 1.5z" />
    </g>
  <text x="26" y="12" font-size="13" fill="#57606a" font-family="'Inter', 'Segoe UI', -apple-system, BlinkMacSystemFont, system-ui, sans-serif" letter-spacing="0.3">Contributed To (12mo)</text><text x="230" y="12" font-size="14" font-weight="600" fill="#24292f" font-family="'Inter', 'Segoe UI', -apple-system, BlinkMacSystemFont, system-ui, sans-serif" text-anchor="end" letter-spacing="0.2">5</text></g></g>
      <g transform="translate(290, 62)">
        <circle cx="36" cy="36" r="42" fill="#f6f8fa" stroke="#93c5fd" stroke-width="3"/>
        <circle cx="36" cy="36" r="34" fill="#93c5fd" opacity="0.12"/>
        <text x="36" y="44" text-anchor="middle" font-size="28" font-weight="700" fill="#93c5fd" font-family="'Inter', 'Segoe UI', -apple-system, BlinkMacSystemFont, system-ui, sans-serif" letter-spacing="0.5">B</text>
      </g>
      <text x="326" y="168" text-anchor="middle" font-size="12" font-weight="500" fill="#57606a" font-family="'Inter', 'Segoe UI', -apple-system, BlinkMacSystemFont, system-ui, sans-serif" letter-spacing="0.3">Rating</text>
    </g>
  <g transform="translate(433, 259)">
      <rect x="0" y="0" width="377" height="200" rx="14" fill="#ffffff" stroke="#d0d7de" stroke-width="1"/>
      <g transform="translate(24, 28)">
    <g transform="translate(0, -1) scale(1.125)">
      <path fill="#0550ae" d="M4.72 3.22a.75.75 0 0 1 1.06 1.06L2.06 8l3.72 3.72a.75.75 0 1 1-1.06 1.06L.47 8.53a.75.75 0 0 1 0-1.06Zm6.56 0a.75.75 0 1 0-1.06 1.06L13.94 8l-3.72 3.72a.75.75 0 1 0 1.06 1.06l4.25-4.25a.75.75 0 0 0 0-1.06Z" />
    </g>
  <text x="28" y="13" font-size="16" font-weight="600" fill="#0550ae" font-family="'Inter', 'Segoe UI', -apple-system, BlinkMacSystemFont, system-ui, sans-serif" letter-spacing="0.3">Most Used Languages</text></g>
      <g transform="translate(24, 60)">
        <defs><clipPath id="langBarClip"><rect x="0" y="0" width="329" height="12" rx="6"/></clipPath></defs>
        <rect x="0" y="0" width="329" height="12" rx="6" fill="#f6f8fa"/>
        <g clip-path="url(#langBarClip)"><rect x="0" y="0" width="158.83465618682555" height="12" fill="#f1e05a"/><rect x="158.83465618682555" y="0" width="130.94866369581885" height="12" fill="#3178c6"/><rect x="289.7833198826444" y="0" width="17.79875904642444" height="12" fill="#663399"/><rect x="307.5820789290688" y="0" width="10.685761488175705" height="12" fill="#e34c26"/><rect x="318.26784041724454" y="0" width="4.228054030403004" height="12" fill="#3572A5"/><rect x="322.4958944476476" y="0" width="3.194792806513998" height="12" fill="#00B4AB"/><rect x="325.69068725416156" y="0" width="2.0161410509608655" height="12" fill="#c6538c"/><rect x="327.70682830512243" y="0" width="1.2931716948775716" height="12" fill="#4F5D95"/></g>
      </g>
      <g transform="translate(24, 88)"><g transform="translate(0, 0)"><circle cx="6" cy="7" r="5" fill="#f1e05a"/><text x="20" y="11" font-size="12" font-weight="500" fill="#24292f" font-family="'Inter', 'Segoe UI', -apple-system, BlinkMacSystemFont, system-ui, sans-serif" letter-spacing="0.3">JavaScript</text><text x="155" y="11" font-size="12" fill="#57606a" font-family="'Inter', 'Segoe UI', -apple-system, BlinkMacSystemFont, system-ui, sans-serif" text-anchor="end" letter-spacing="0.2">48.0%</text></g><g transform="translate(0, 27)"><circle cx="6" cy="7" r="5" fill="#663399"/><text x="20" y="11" font-size="12" font-weight="500" fill="#24292f" font-family="'Inter', 'Segoe UI', -apple-system, BlinkMacSystemFont, system-ui, sans-serif" letter-spacing="0.3">CSS</text><text x="155" y="11" font-size="12" fill="#57606a" font-family="'Inter', 'Segoe UI', -apple-system, BlinkMacSystemFont, system-ui, sans-serif" text-anchor="end" letter-spacing="0.2">5.4%</text></g><g transform="translate(0, 54)"><circle cx="6" cy="7" r="5" fill="#3572A5"/><text x="20" y="11" font-size="12" font-weight="500" fill="#24292f" font-family="'Inter', 'Segoe UI', -apple-system, BlinkMacSystemFont, system-ui, sans-serif" letter-spacing="0.3">Python</text><text x="155" y="11" font-size="12" fill="#57606a" font-family="'Inter', 'Segoe UI', -apple-system, BlinkMacSystemFont, system-ui, sans-serif" text-anchor="end" letter-spacing="0.2">1.3%</text></g><g transform="translate(0, 81)"><circle cx="6" cy="7" r="5" fill="#c6538c"/><text x="20" y="11" font-size="12" font-weight="500" fill="#24292f" font-family="'Inter', 'Segoe UI', -apple-system, BlinkMacSystemFont, system-ui, sans-serif" letter-spacing="0.3">SCSS</text><text x="155" y="11" font-size="12" fill="#57606a" font-family="'Inter', 'Segoe UI', -apple-system, BlinkMacSystemFont, system-ui, sans-serif" text-anchor="end" letter-spacing="0.2">0.6%</text></g><g transform="translate(175, 0)"><circle cx="6" cy="7" r="5" fill="#3178c6"/><text x="20" y="11" font-size="12" font-weight="500" fill="#24292f" font-family="'Inter', 'Segoe UI', -apple-system, BlinkMacSystemFont, system-ui, sans-serif" letter-spacing="0.3">TypeScript</text><text x="155" y="11" font-size="12" fill="#57606a" font-family="'Inter', 'Segoe UI', -apple-system, BlinkMacSystemFont, system-ui, sans-serif" text-anchor="end" letter-spacing="0.2">39.6%</text></g><g transform="translate(175, 27)"><circle cx="6" cy="7" r="5" fill="#e34c26"/><text x="20" y="11" font-size="12" font-weight="500" fill="#24292f" font-family="'Inter', 'Segoe UI', -apple-system, BlinkMacSystemFont, system-ui, sans-serif" letter-spacing="0.3">HTML</text><text x="155" y="11" font-size="12" fill="#57606a" font-family="'Inter', 'Segoe UI', -apple-system, BlinkMacSystemFont, system-ui, sans-serif" text-anchor="end" letter-spacing="0.2">3.2%</text></g><g transform="translate(175, 54)"><circle cx="6" cy="7" r="5" fill="#00B4AB"/><text x="20" y="11" font-size="12" font-weight="500" fill="#24292f" font-family="'Inter', 'Segoe UI', -apple-system, BlinkMacSystemFont, system-ui, sans-serif" letter-spacing="0.3">Dart</text><text x="155" y="11" font-size="12" fill="#57606a" font-family="'Inter', 'Segoe UI', -apple-system, BlinkMacSystemFont, system-ui, sans-serif" text-anchor="end" letter-spacing="0.2">1.0%</text></g><g transform="translate(175, 81)"><circle cx="6" cy="7" r="5" fill="#4F5D95"/><text x="20" y="11" font-size="12" font-weight="500" fill="#24292f" font-family="'Inter', 'Segoe UI', -apple-system, BlinkMacSystemFont, system-ui, sans-serif" letter-spacing="0.3">PHP</text><text x="155" y="11" font-size="12" fill="#57606a" font-family="'Inter', 'Segoe UI', -apple-system, BlinkMacSystemFont, system-ui, sans-serif" text-anchor="end" letter-spacing="0.2">0.4%</text></g></g>
    </g>
  
    <!-- Streak Section -->
    <g transform="translate(40, 480)">
      <!-- Total Contributions Card -->
      <g transform="translate(0, 0)">
        <rect x="0" y="0" width="246" height="140" rx="14" fill="#ffffff" stroke="#d0d7de" stroke-width="1"/>
        
        <g transform="translate(123, 28)">
          
    <g transform="translate(-10, 0) scale(1.25)">
      <path fill="#0550ae" d="M8.5.75a.75.75 0 00-1.5 0v5.19L4.28 3.22a.75.75 0 00-1.06 1.06L6.19 7.25H.75a.75.75 0 000 1.5h5.44L3.22 11.72a.75.75 0 101.06 1.06L7 10.06v5.19a.75.75 0 001.5 0v-5.19l2.72 2.72a.75.75 0 101.06-1.06l-2.72-2.72h5.19a.75.75 0 000-1.5h-5.19l2.72-2.72a.75.75 0 00-1.06-1.06L8.5 5.94V.75z" />
    </g>
  
        </g>
        
        <text x="123" y="70" text-anchor="middle" font-size="26" font-weight="700" fill="#0550ae" font-family="'Inter', 'Segoe UI', -apple-system, BlinkMacSystemFont, system-ui, sans-serif" letter-spacing="0.3">
          3,204
        </text>
        <text x="123" y="94" text-anchor="middle" font-size="12" font-weight="600" fill="#57606a" font-family="'Inter', 'Segoe UI', -apple-system, BlinkMacSystemFont, system-ui, sans-serif" letter-spacing="0.3">
          Total Contributions
        </text>
        <text x="123" y="116" text-anchor="middle" font-size="10" fill="#57606a" font-family="'Inter', 'Segoe UI', -apple-system, BlinkMacSystemFont, system-ui, sans-serif" opacity="0.7" letter-spacing="0.2">
          Oct 2, 2020 - Present
        </text>
      </g>
      
      <!-- Current Streak Card -->
      <g transform="translate(262, 0)">
        <rect x="0" y="0" width="246" height="140" rx="14" fill="#ffffff" stroke="#d0d7de" stroke-width="1"/>
        
        <!-- Circle Progress with fire icon on edge -->
        <g transform="translate(123, 58)">
          <circle cx="0" cy="0" r="32" fill="none" stroke="#d0d7de" stroke-width="5" opacity="0.4"/>
          <circle cx="0" cy="0" r="32" fill="none" stroke="#0550ae" stroke-width="5" 
                  stroke-dasharray="201.06192982974676" 
                  stroke-dashoffset="194.35986550208852"
                  transform="rotate(-90)"
                  stroke-linecap="round"/>
          <!-- Fire icon positioned at top edge of circle - no background -->
          <g transform="translate(-10, -42)">
            
    <g transform="translate(0, 0) scale(1.25)">
      <path fill="#ff6b35" d="M7.998 14.5c2.832 0 5-1.98 5-4.5 0-1.463-.68-2.19-1.879-3.383l-.036-.037c-1.013-1.008-2.3-2.29-2.834-4.434-.322.256-.63.579-.864.953-.432.696-.621 1.58-.046 2.73.473.947.67 2.284-.278 3.232-.61.61-1.545.84-2.403.633a2.79 2.79 0 01-1.436-.874A3.198 3.198 0 003 10c0 2.53 2.164 4.5 4.998 4.5zM9.533.753C9.496.34 9.16.009 8.77.146 7.035.75 4.34 3.187 5.997 6.5c.344.689.285 1.218.003 1.5-.419.419-1.54.487-2.04-.832-.173-.454-.659-.762-1.035-.454C2.036 7.44 1.5 8.702 1.5 10c0 3.512 2.998 6 6.498 6s6.5-2.5 6.5-6c0-2.137-1.128-3.26-2.312-4.438-1.19-1.184-2.436-2.425-2.653-4.81z" />
    </g>
  
          </g>
          <text x="0" y="8" text-anchor="middle" font-size="22" font-weight="700" fill="#24292f" font-family="'Inter', 'Segoe UI', -apple-system, BlinkMacSystemFont, system-ui, sans-serif" letter-spacing="0.3">
            1
          </text>
        </g>
        
        <text x="123" y="108" text-anchor="middle" font-size="12" font-weight="600" fill="#57606a" font-family="'Inter', 'Segoe UI', -apple-system, BlinkMacSystemFont, system-ui, sans-serif" letter-spacing="0.3">
          Current Streak
        </text>
        <text x="123" y="126" text-anchor="middle" font-size="10" fill="#57606a" font-family="'Inter', 'Segoe UI', -apple-system, BlinkMacSystemFont, system-ui, sans-serif" opacity="0.7" letter-spacing="0.2">
          Jun 28 - Jun 28, 2026
        </text>
      </g>
      
      <!-- Longest Streak Card -->
      <g transform="translate(524, 0)">
        <rect x="0" y="0" width="246" height="140" rx="14" fill="#ffffff" stroke="#d0d7de" stroke-width="1"/>
        
        <g transform="translate(123, 28)">
          
    <g transform="translate(-10, 0) scale(1.25)">
      <path fill="#1a7f37" d="M3.217 6.962A3.501 3.501 0 0 1 6.5 3.5h3a3.5 3.5 0 0 1 3.283 3.462l1.1-.275a.75.75 0 0 1 .867.98l-.633 1.9a.75.75 0 0 1-.634.513l-1.483.148V11a3 3 0 0 1-3 3H7a3 3 0 0 1-3-3v-.773l-1.483-.148a.75.75 0 0 1-.634-.513l-.633-1.9a.75.75 0 0 1 .867-.98ZM6.5 5a2 2 0 0 0-2 2v4a1.5 1.5 0 0 0 1.5 1.5h4A1.5 1.5 0 0 0 11.5 11V7a2 2 0 0 0-2-2Z" />
    </g>
  
        </g>
        
        <text x="123" y="70" text-anchor="middle" font-size="26" font-weight="700" fill="#1a7f37" font-family="'Inter', 'Segoe UI', -apple-system, BlinkMacSystemFont, system-ui, sans-serif" letter-spacing="0.3">
          26
        </text>
        <text x="123" y="94" text-anchor="middle" font-size="12" font-weight="600" fill="#57606a" font-family="'Inter', 'Segoe UI', -apple-system, BlinkMacSystemFont, system-ui, sans-serif" letter-spacing="0.3">
          Longest Streak
        </text>
        <text x="123" y="116" text-anchor="middle" font-size="10" fill="#57606a" font-family="'Inter', 'Segoe UI', -apple-system, BlinkMacSystemFont, system-ui, sans-serif" opacity="0.7" letter-spacing="0.2">
          Jan 12 - Feb 6, 2026
        </text>
      </g>
    </g>
  
  <g transform="translate(40, 643)">
      <rect x="0" y="0" width="770" height="160" rx="14" fill="#ffffff" stroke="#d0d7de" stroke-width="1"/>
      <g transform="translate(24, 26)">
    <g transform="translate(0, -1) scale(1.125)">
      <path fill="#0550ae" d="M1.705 8.005a.75.75 0 0 1 .834.656 5.5 5.5 0 0 0 9.592 2.97l-1.204-1.204a.25.25 0 0 1 .177-.427h3.646a.25.25 0 0 1 .25.25v3.646a.25.25 0 0 1-.427.177l-1.38-1.38A7.001 7.001 0 0 1 1.05 8.84a.75.75 0 0 1 .656-.834ZM8 2.5a5.487 5.487 0 0 0-4.131 1.869l1.204 1.204A.25.25 0 0 1 4.896 6H1.25A.25.25 0 0 1 1 5.75V2.104a.25.25 0 0 1 .427-.177l1.38 1.38A7.001 7.001 0 0 1 14.95 7.16a.75.75 0 0 1-1.49.178A5.5 5.5 0 0 0 8 2.5Z" />
    </g>
  <text x="28" y="13" font-size="15" font-weight="600" fill="#0550ae" font-family="'Inter', 'Segoe UI', -apple-system, BlinkMacSystemFont, system-ui, sans-serif" letter-spacing="0.3">Contribution Activity</text><text x="28" y="34" font-size="12" fill="#57606a" font-family="'Inter', 'Segoe UI', -apple-system, BlinkMacSystemFont, system-ui, sans-serif" letter-spacing="0.2">Daily contributions · May - Jun 2026</text></g>
      <g transform="translate(36, 62)">
        <text x="0" y="5" font-size="10" fill="#57606a" text-anchor="end" font-family="'Inter', 'Segoe UI', -apple-system, BlinkMacSystemFont, system-ui, sans-serif" letter-spacing="0.2">15</text>
        <text x="0" y="42" font-size="10" fill="#57606a" text-anchor="end" font-family="'Inter', 'Segoe UI', -apple-system, BlinkMacSystemFont, system-ui, sans-serif" letter-spacing="0.2">8</text>
        <text x="0" y="77" font-size="10" fill="#57606a" text-anchor="end" font-family="'Inter', 'Segoe UI', -apple-system, BlinkMacSystemFont, system-ui, sans-serif" letter-spacing="0.2">0</text>
        <line x1="10" y1="0" x2="712" y2="0" stroke="#d0d7de" stroke-width="0.5" stroke-dasharray="4,2" opacity="0.4"/>
        <line x1="10" y1="40" x2="712" y2="40" stroke="#d0d7de" stroke-width="0.5" stroke-dasharray="4,2" opacity="0.4"/>
        <line x1="10" y1="80" x2="712" y2="80" stroke="#d0d7de" stroke-width="0.5"/>
      </g>
      <g transform="translate(52, 62)">
        <defs><linearGradient id="graphGradient" x1="0%" y1="0%" x2="0%" y2="100%"><stop offset="0%" style="stop-color:#0550ae;stop-opacity:0.3"/><stop offset="100%" style="stop-color:#0550ae;stop-opacity:0.02"/></linearGradient></defs>
        <path d="M 0 80 L 23.333333333333332 70.66666666666667 L 46.666666666666664 80 L 70 80 L 93.33333333333333 66 L 116.66666666666666 61.33333333333333 L 140 80 L 163.33333333333334 80 L 186.66666666666666 70.66666666666667 L 210 75.33333333333333 L 233.33333333333331 70.66666666666667 L 256.66666666666663 56.66666666666667 L 280 61.33333333333333 L 303.33333333333337 80 L 326.6666666666667 75.33333333333333 L 350 66 L 373.3333333333333 80 L 396.66666666666663 70.66666666666667 L 420 66 L 443.3333333333333 75.33333333333333 L 466.66666666666663 70.66666666666667 L 489.99999999999994 80 L 513.3333333333333 80 L 536.6666666666667 80 L 560 80 L 583.3333333333334 80 L 606.6666666666667 42.666666666666664 L 630 80 L 653.3333333333334 10 L 676.6666666666666 80 L 700 56.66666666666667 L 700 80 L 0 80 Z" fill="url(#graphGradient)"/>
        <path d="M 0 80 L 23.333333333333332 70.66666666666667 L 46.666666666666664 80 L 70 80 L 93.33333333333333 66 L 116.66666666666666 61.33333333333333 L 140 80 L 163.33333333333334 80 L 186.66666666666666 70.66666666666667 L 210 75.33333333333333 L 233.33333333333331 70.66666666666667 L 256.66666666666663 56.66666666666667 L 280 61.33333333333333 L 303.33333333333337 80 L 326.6666666666667 75.33333333333333 L 350 66 L 373.3333333333333 80 L 396.66666666666663 70.66666666666667 L 420 66 L 443.3333333333333 75.33333333333333 L 466.66666666666663 70.66666666666667 L 489.99999999999994 80 L 513.3333333333333 80 L 536.6666666666667 80 L 560 80 L 583.3333333333334 80 L 606.6666666666667 42.666666666666664 L 630 80 L 653.3333333333334 10 L 676.6666666666666 80 L 700 56.66666666666667" fill="none" stroke="#0550ae" stroke-width="2.5" stroke-linecap="round" stroke-linejoin="round"/>
        <circle cx="0" cy="80" r="4" fill="#0550ae" stroke="#ffffff" stroke-width="2"/><circle cx="116.66666666666666" cy="61.33333333333333" r="4" fill="#0550ae" stroke="#ffffff" stroke-width="2"/><circle cx="233.33333333333331" cy="70.66666666666667" r="4" fill="#0550ae" stroke="#ffffff" stroke-width="2"/><circle cx="350" cy="66" r="4" fill="#0550ae" stroke="#ffffff" stroke-width="2"/><circle cx="466.66666666666663" cy="70.66666666666667" r="4" fill="#0550ae" stroke="#ffffff" stroke-width="2"/><circle cx="583.3333333333334" cy="80" r="4" fill="#0550ae" stroke="#ffffff" stroke-width="2"/><circle cx="700" cy="56.66666666666667" r="4" fill="#0550ae" stroke="#ffffff" stroke-width="2"/>
      </g>
      <g transform="translate(52, 152)"><text x="0" y="0" text-anchor="middle" font-size="10" fill="#57606a" font-family="'Inter', 'Segoe UI', -apple-system, BlinkMacSystemFont, system-ui, sans-serif" letter-spacing="0.2">29</text><text x="163.33333333333334" y="0" text-anchor="middle" font-size="10" fill="#57606a" font-family="'Inter', 'Segoe UI', -apple-system, BlinkMacSystemFont, system-ui, sans-serif" letter-spacing="0.2">5</text><text x="326.6666666666667" y="0" text-anchor="middle" font-size="10" fill="#57606a" font-family="'Inter', 'Segoe UI', -apple-system, BlinkMacSystemFont, system-ui, sans-serif" letter-spacing="0.2">12</text><text x="489.99999999999994" y="0" text-anchor="middle" font-size="10" fill="#57606a" font-family="'Inter', 'Segoe UI', -apple-system, BlinkMacSystemFont, system-ui, sans-serif" letter-spacing="0.2">19</text><text x="653.3333333333334" y="0" text-anchor="middle" font-size="10" fill="#57606a" font-family="'Inter', 'Segoe UI', -apple-system, BlinkMacSystemFont, system-ui, sans-serif" letter-spacing="0.2">26</text><text x="700" y="0" text-anchor="middle" font-size="10" fill="#57606a" font-family="'Inter', 'Segoe UI', -apple-system, BlinkMacSystemFont, system-ui, sans-serif" letter-spacing="0.2">28</text></g>
    </g>
</svg>